<svg xmlns="http://www.w3.org/2000/svg" width="30" height="43" viewBox="0 0 30 43" fill="none"><path d="M2.21895 11.2181L0.00390625 11.2183L0.00371015 13.4329L2.21875 13.4328L2.21895 11.2181Z" fill="#FBBD2F"></path><path d="M2.21895 29.079L0.00390625 29.0791L0.00371015 31.2937L2.21875 31.2936L2.21895 29.079Z" fill="#FBBD2F"></path><path d="M6.71895 15.6464L4.50391 15.6465L4.50371 17.8611L6.71875 17.861L6.71895 15.6464Z" fill="#FBBD2F"></path><path d="M6.72285 11.2181L4.50781 11.2183L4.50762 13.4329L6.72266 13.4328L6.72285 11.2181Z" fill="#FBBD2F"></path><path d="M6.72285 24.5785L4.50781 24.5786L4.50762 26.7932L6.72266 26.7931L6.72285 24.5785Z" fill="#FBBD2F"></path><path d="M6.72285 29.079L4.50781 29.0791L4.50762 31.2937L6.72266 31.2936L6.72285 29.079Z" fill="#FBBD2F"></path><path d="M6.72285 2.21473L4.50781 2.21484L4.50762 4.42946L6.72266 4.42935L6.72285 2.21473Z" fill="#FBBD2F"></path><path d="M6.71895 38.0072L4.50391 38.0073L4.50371 40.2219L6.71875 40.2218L6.71895 38.0072Z" fill="#FBBD2F"></path><path d="M11.1564 2.21522L8.94141 2.21533L8.94121 4.42995L11.1563 4.42983L11.1564 2.21522Z" fill="#FBBD2F"></path><path d="M11.1486 24.5785L8.93359 24.5786L8.9334 26.7932L11.1484 26.7931L11.1486 24.5785Z" fill="#FBBD2F"></path><path d="M11.1545 20.1488L8.93945 20.1489L8.93926 22.3635L11.1543 22.3634L11.1545 20.1488Z" fill="#FBBD2F"></path><path d="M11.1545 15.6464L8.93945 15.6465L8.93926 17.8611L11.1543 17.861L11.1545 15.6464Z" fill="#FBBD2F"></path><path d="M11.1506 33.5805L8.93555 33.5806L8.93535 35.7952L11.1504 35.7951L11.1506 33.5805Z" fill="#FBBD2F"></path><path d="M11.1545 38.0097L8.93945 38.0098L8.93926 40.2244L11.1543 40.2243L11.1545 38.0097Z" fill="#FBBD2F"></path><path d="M11.1564 6.71766L8.94141 6.71777L8.94121 8.93239L11.1563 8.93228L11.1564 6.71766Z" fill="#FBBD2F"></path><path d="M15.6545 6.71571L13.4395 6.71582L13.4393 8.93044L15.6543 8.93032L15.6545 6.71571Z" fill="#FBBD2F"></path><path d="M15.6545 11.2181L13.4395 11.2183L13.4393 13.4329L15.6543 13.4328L15.6545 11.2181Z" fill="#FBBD2F"></path><path d="M15.6525 20.1469L13.4375 20.147L13.4373 22.3616L15.6523 22.3615L15.6525 20.1469Z" fill="#FBBD2F"></path><path d="M15.6545 29.0785L13.4395 29.0786L13.4393 31.2932L15.6543 31.2931L15.6545 29.0785Z" fill="#FBBD2F"></path><path d="M15.6545 33.579L13.4395 33.5791L13.4393 35.7937L15.6543 35.7936L15.6545 33.579Z" fill="#FBBD2F"></path><path d="M20.0822 11.2181L17.8672 11.2183L17.867 13.4329L20.082 13.4328L20.0822 11.2181Z" fill="#FBBD2F"></path><path d="M20.0822 29.0785L17.8672 29.0786L17.867 31.2932L20.082 31.2931L20.0822 29.0785Z" fill="#FBBD2F"></path><path d="M20.0822 24.578L17.8672 24.5781L17.867 26.7927L20.082 26.7926L20.0822 24.578Z" fill="#FBBD2F"></path><path d="M20.0842 15.6464L17.8691 15.6465L17.8689 17.8611L20.084 17.861L20.0842 15.6464Z" fill="#FBBD2F"></path><path d="M24.5881 24.5785L22.373 24.5786L22.3729 26.7932L24.5879 26.7931L24.5881 24.5785Z" fill="#FBBD2F"></path><path d="M24.5822 15.6464L22.3672 15.6465L22.367 17.8611L24.582 17.861L24.5822 15.6464Z" fill="#FBBD2F"></path><path d="M24.5822 20.1469L22.3672 20.147L22.367 22.3616L24.582 22.3615L24.5822 20.1469Z" fill="#FBBD2F"></path><path d="M29.0881 20.1488L26.873 20.1489L26.8729 22.3635L29.0879 22.3634L29.0881 20.1488Z" fill="#FBBD2F"></path><path d="M8.9377 40.2943L6.72266 40.2944L6.72246 42.509L8.9375 42.5089L8.9377 40.2943Z" fill="#FBBD2F"></path><path d="M6.72285 40.2943L4.50781 40.2944L4.50762 42.509L6.72266 42.5089L6.72285 40.2943Z" fill="#FBBD2F"></path><path d="M11.1486 40.2943L8.93359 40.2944L8.9334 42.509L11.1484 42.5089L11.1486 40.2943Z" fill="#FBBD2F"></path><path d="M8.9377 35.7943L6.72266 35.7944L6.72246 38.0091L8.9375 38.0089L8.9377 35.7943Z" fill="#FBBD2F"></path><path d="M13.4397 35.7943L11.2246 35.7944L11.2244 38.0091L13.4395 38.0089L13.4397 35.7943Z" fill="#FBBD2F"></path><path d="M6.72285 35.7943L4.50781 35.7944L4.50762 38.0091L6.72266 38.0089L6.72285 35.7943Z" fill="#FBBD2F"></path><path d="M11.1486 35.7943L8.93359 35.7944L8.9334 38.0091L11.1484 38.0089L11.1486 35.7943Z" fill="#FBBD2F"></path><path d="M15.6545 35.7943L13.4395 35.7944L13.4393 38.0091L15.6543 38.0089L15.6545 35.7943Z" fill="#FBBD2F"></path><path d="M17.8713 31.2938L15.6562 31.2939L15.6561 33.5086L17.8711 33.5084L17.8713 31.2938Z" fill="#FBBD2F"></path><path d="M4.43575 31.2929L2.2207 31.293L2.22051 33.5076L4.43555 33.5075L4.43575 31.2929Z" fill="#FBBD2F"></path><path d="M13.4397 31.2924L11.2246 31.2925L11.2244 33.5071L13.4395 33.507L13.4397 31.2924Z" fill="#FBBD2F"></path><path d="M2.2209 31.2938L0.00585938 31.2939L0.00566327 33.5086L2.22071 33.5084L2.2209 31.2938Z" fill="#FBBD2F"></path><path d="M6.72285 31.2938L4.50781 31.2939L4.50762 33.5086L6.72266 33.5084L6.72285 31.2938Z" fill="#FBBD2F"></path><path d="M11.1545 31.2938L8.93945 31.2939L8.93926 33.5086L11.1543 33.5084L11.1545 31.2938Z" fill="#FBBD2F"></path><path d="M15.6545 31.2938L13.4395 31.2939L13.4393 33.5086L15.6543 33.5084L15.6545 31.2938Z" fill="#FBBD2F"></path><path d="M20.0861 31.2938L17.8711 31.2939L17.8709 33.5086L20.0859 33.5084L20.0861 31.2938Z" fill="#FBBD2F"></path><path d="M4.43379 26.8641L2.21875 26.8643L2.21855 29.0789L4.4336 29.0788L4.43379 26.8641Z" fill="#FBBD2F"></path><path d="M22.3674 26.8641L20.1523 26.8643L20.1521 29.0789L22.3672 29.0788L22.3674 26.8641Z" fill="#FBBD2F"></path><path d="M17.8693 26.8632L15.6543 26.8633L15.6541 29.0779L17.8691 29.0778L17.8693 26.8632Z" fill="#FBBD2F"></path><path d="M8.93965 26.8632L6.72461 26.8633L6.72441 29.0779L8.93946 29.0778L8.93965 26.8632Z" fill="#FBBD2F"></path><path d="M2.2209 26.8632L0.00585938 26.8633L0.00566327 29.0779L2.22071 29.0778L2.2209 26.8632Z" fill="#FBBD2F"></path><path d="M6.71895 26.8632L4.50391 26.8633L4.50371 29.0779L6.71875 29.0778L6.71895 26.8632Z" fill="#FBBD2F"></path><path d="M11.1506 26.8632L8.93555 26.8633L8.93535 29.0779L11.1504 29.0778L11.1506 26.8632Z" fill="#FBBD2F"></path><path d="M15.6525 26.8632L13.4375 26.8633L13.4373 29.0779L15.6523 29.0778L15.6525 26.8632Z" fill="#FBBD2F"></path><path d="M20.0842 26.8632L17.8691 26.8633L17.8689 29.0779L20.084 29.0778L20.0842 26.8632Z" fill="#FBBD2F"></path><path d="M24.5822 26.8641L22.3672 26.8643L22.367 29.0789L24.582 29.0788L24.5822 26.8641Z" fill="#FBBD2F"></path><path d="M13.4436 22.3641L11.2285 22.3643L11.2283 24.5789L13.4434 24.5788L13.4436 22.3641Z" fill="#FBBD2F"></path><path d="M22.3674 22.3637L20.1523 22.3638L20.1521 24.5784L22.3672 24.5783L22.3674 22.3637Z" fill="#FBBD2F"></path><path d="M8.9377 22.3627L6.72266 22.3628L6.72246 24.5774L8.9375 24.5773L8.9377 22.3627Z" fill="#FBBD2F"></path><path d="M26.801 22.3627L24.5859 22.3628L24.5857 24.5774L26.8008 24.5773L26.801 22.3627Z" fill="#FBBD2F"></path><path d="M6.72481 22.3627L4.50977 22.3628L4.50957 24.5774L6.72461 24.5773L6.72481 22.3627Z" fill="#FBBD2F"></path><path d="M11.1506 22.3627L8.93555 22.3628L8.93535 24.5774L11.1504 24.5773L11.1506 22.3627Z" fill="#FBBD2F"></path><path d="M15.6584 22.3627L13.4434 22.3628L13.4432 24.5774L15.6582 24.5773L15.6584 22.3627Z" fill="#FBBD2F"></path><path d="M20.0842 22.3627L17.8691 22.3628L17.8689 24.5774L20.084 24.5773L20.0842 22.3627Z" fill="#FBBD2F"></path><path d="M24.5803 22.3627L22.3652 22.3628L22.365 24.5774L24.5801 24.5773L24.5803 22.3627Z" fill="#FBBD2F"></path><path d="M29.0861 22.3627L26.8711 22.3628L26.8709 24.5774L29.0859 24.5773L29.0861 22.3627Z" fill="#FBBD2F"></path><path d="M26.801 17.8622L24.5859 17.8623L24.5857 20.0769L26.8008 20.0768L26.801 17.8622Z" fill="#FBBD2F"></path><path d="M8.9377 17.8622L6.72266 17.8623L6.72246 20.0769L8.9375 20.0768L8.9377 17.8622Z" fill="#FBBD2F"></path><path d="M22.3654 17.8612L20.1504 17.8613L20.1502 20.0759L22.3652 20.0758L22.3654 17.8612Z" fill="#FBBD2F"></path><path d="M13.4436 17.8622L11.2285 17.8623L11.2283 20.0769L13.4434 20.0768L13.4436 17.8622Z" fill="#FBBD2F"></path><path d="M6.72481 17.8622L4.50977 17.8623L4.50957 20.0769L6.72461 20.0768L6.72481 17.8622Z" fill="#FBBD2F"></path><path d="M11.1506 17.8622L8.93555 17.8623L8.93535 20.0769L11.1504 20.0768L11.1506 17.8622Z" fill="#FBBD2F"></path><path d="M15.6545 17.8622L13.4395 17.8623L13.4393 20.0769L15.6543 20.0768L15.6545 17.8622Z" fill="#FBBD2F"></path><path d="M20.0842 17.8622L17.8691 17.8623L17.8689 20.0769L20.084 20.0768L20.0842 17.8622Z" fill="#FBBD2F"></path><path d="M24.5881 17.8622L22.373 17.8623L22.3729 20.0769L24.5879 20.0768L24.5881 17.8622Z" fill="#FBBD2F"></path><path d="M29.0861 17.8622L26.8711 17.8623L26.8709 20.0769L29.0859 20.0768L29.0861 17.8622Z" fill="#FBBD2F"></path><path d="M8.93379 13.4315L6.71875 13.4316L6.71855 15.6463L8.9336 15.6461L8.93379 13.4315Z" fill="#FBBD2F"></path><path d="M17.8713 13.4315L15.6562 13.4316L15.6561 15.6463L17.8711 15.6461L17.8713 13.4315Z" fill="#FBBD2F"></path><path d="M4.43575 13.433L2.2207 13.4331L2.22051 15.6477L4.43555 15.6476L4.43575 13.433Z" fill="#FBBD2F"></path><path d="M22.3732 13.433L20.1582 13.4331L20.158 15.6477L22.373 15.6476L22.3732 13.433Z" fill="#FBBD2F"></path><path d="M2.2209 13.4315L0.00585938 13.4316L0.00566327 15.6463L2.22071 15.6461L2.2209 13.4315Z" fill="#FBBD2F"></path><path d="M6.72285 13.433L4.50781 13.4331L4.50762 15.6477L6.72266 15.6476L6.72285 13.433Z" fill="#FBBD2F"></path><path d="M11.1545 13.4315L8.93945 13.4316L8.93926 15.6463L11.1543 15.6461L11.1545 13.4315Z" fill="#FBBD2F"></path><path d="M15.6545 13.433L13.4395 13.4331L13.4393 15.6477L15.6543 15.6476L15.6545 13.433Z" fill="#FBBD2F"></path><path d="M20.0861 13.4315L17.8711 13.4316L17.8709 15.6463L20.0859 15.6461L20.0861 13.4315Z" fill="#FBBD2F"></path><path d="M24.5881 13.433L22.373 13.4331L22.3729 15.6477L24.5879 15.6476L24.5881 13.433Z" fill="#FBBD2F"></path><path d="M17.8713 8.93104L15.6562 8.93115L15.6561 11.1458L17.8711 11.1457L17.8713 8.93104Z" fill="#FBBD2F"></path><path d="M13.4397 8.9325L11.2246 8.93262L11.2244 11.1472L13.4395 11.1471L13.4397 8.9325Z" fill="#FBBD2F"></path><path d="M4.43575 8.9325L2.2207 8.93262L2.22051 11.1472L4.43555 11.1471L4.43575 8.9325Z" fill="#FBBD2F"></path><path d="M2.2209 8.93104L0.00585938 8.93115L0.00566327 11.1458L2.22071 11.1457L2.2209 8.93104Z" fill="#FBBD2F"></path><path d="M6.72285 8.93104L4.50781 8.93115L4.50762 11.1458L6.72266 11.1457L6.72285 8.93104Z" fill="#FBBD2F"></path><path d="M11.1545 8.93104L8.93945 8.93115L8.93926 11.1458L11.1543 11.1457L11.1545 8.93104Z" fill="#FBBD2F"></path><path d="M15.6525 8.93104L13.4375 8.93115L13.4373 11.1458L15.6523 11.1457L15.6525 8.93104Z" fill="#FBBD2F"></path><path d="M20.0861 8.93104L17.8711 8.93115L17.8709 11.1458L20.0859 11.1457L20.0861 8.93104Z" fill="#FBBD2F"></path><path d="M13.4436 4.50184L11.2285 4.50195L11.2283 6.71657L13.4434 6.71646L13.4436 4.50184Z" fill="#FBBD2F"></path><path d="M8.93965 4.50233L6.72461 4.50244L6.72441 6.71706L8.93946 6.71694L8.93965 4.50233Z" fill="#FBBD2F"></path><path d="M6.72481 4.50233L4.50977 4.50244L4.50957 6.71706L6.72461 6.71694L6.72481 4.50233Z" fill="#FBBD2F"></path><path d="M11.1506 4.50086L8.93555 4.50098L8.93535 6.71559L11.1504 6.71548L11.1506 4.50086Z" fill="#FBBD2F"></path><path d="M15.6584 4.50233L13.4434 4.50244L13.4432 6.71706L15.6582 6.71694L15.6584 4.50233Z" fill="#FBBD2F"></path><path d="M8.9377 0.000863547L6.72266 0.000976562L6.72246 2.21559L8.9375 2.21548L8.9377 0.000863547Z" fill="#FBBD2F"></path><path d="M6.72481 0.00184011L4.50977 0.00195312L4.50957 2.21657L6.72461 2.21646L6.72481 0.00184011Z" fill="#FBBD2F"></path><path d="M11.1506 0.000863547L8.93555 0.000976562L8.93535 2.21559L11.1504 2.21548L11.1506 0.000863547Z" fill="#FBBD2F"></path></svg>